<?xml version="1.0" standalone="no"?>
<!DOCTYPE svg PUBLIC "-//W3C//DTD SVG 20010904//EN"
 "http://www.w3.org/TR/2001/REC-SVG-20010904/DTD/svg10.dtd">
<svg version="1.0" xmlns="http://www.w3.org/2000/svg"
 width="512.000000pt" height="512.000000pt" viewBox="0 0 512.000000 512.000000"
 preserveAspectRatio="xMidYMid meet">
<metadata>
Created by potrace 1.14, written by Peter Selinger 2001-2017
</metadata>
<g transform="translate(0.000000,512.000000) scale(0.100000,-0.100000)"
fill="#000000" stroke="none">
<path d="M1899 5055 c-316 -63 -575 -291 -672 -593 l-26 -84 -186 -185 c-102
-102 -192 -197 -199 -212 -35 -66 2 -169 70 -197 78 -33 126 -15 222 79 39 39
72 67 73 62 6 -72 -3 -261 -12 -264 -6 -2 -34 -22 -63 -45 -131 -107 -158
-292 -63 -436 29 -44 105 -110 127 -110 11 0 11 -2 11 -195 0 -116 -5 -159
-26 -250 -15 -61 -28 -117 -30 -125 -2 -8 -11 -46 -20 -85 -9 -38 -18 -77 -20
-85 -2 -8 -15 -62 -30 -120 -15 -58 -28 -126 -28 -152 -1 -109 119 -177 215
-121 45 26 63 62 93 188 14 61 27 117 29 126 3 9 20 81 39 160 20 79 43 177
52 217 9 40 19 71 22 68 4 -3 6 -158 7 -343 l1 -338 24 -34 c48 -67 140 -84
208 -38 52 34 65 75 66 193 l1 102 60 -52 c75 -64 155 -117 249 -164 40 -19
74 -37 76 -39 7 -5 8 -152 1 -162 -3 -5 -66 -11 -140 -12 -74 -1 -173 -9 -220
-16 -106 -18 -269 -72 -347 -116 -32 -18 -65 -36 -73 -39 -22 -8 -169 -121
-215 -165 -141 -134 -250 -309 -315 -504 -48 -144 -58 -245 -59 -601 l-2 -318
1761 0 1761 0 -2 335 c-2 399 -13 482 -92 675 -30 73 -114 225 -139 252 -7 7
-25 29 -40 49 -149 200 -455 382 -718 428 -108 18 -120 19 -257 20 l-133 1 1
88 0 87 97 47 c94 45 200 117 262 178 17 17 32 30 33 30 2 0 4 -50 4 -110 1
-99 3 -114 24 -145 63 -92 198 -89 254 5 19 33 20 52 21 373 0 185 4 340 7
344 4 3 7 -5 7 -20 0 -14 4 -37 9 -50 5 -13 12 -37 14 -53 8 -43 115 -484 127
-520 5 -17 10 -36 10 -43 0 -21 40 -70 69 -86 82 -42 164 -14 201 69 23 50 21
64 -71 431 -17 66 -33 131 -35 145 -3 14 -12 50 -19 81 -16 62 -25 139 -16
139 4 0 37 -31 75 -69 80 -82 119 -104 172 -95 101 16 160 117 121 207 -7 15
-70 85 -140 156 l-128 127 35 53 c69 102 79 216 27 324 -31 64 -93 130 -138
148 -13 5 -23 14 -24 21 -1 7 -2 153 -4 323 -1 245 -5 325 -18 383 -58 256
-232 481 -462 595 -155 78 -281 101 -516 95 -178 -4 -203 -11 -278 -74 -35
-30 -91 -119 -91 -146 0 -33 -15 -19 -32 30 -24 66 -78 126 -146 159 -56 27
-61 28 -242 29 -118 1 -209 -3 -251 -11z"/>
</g>
</svg>
